<?xml version="1.0" standalone="no"?>
<!DOCTYPE svg PUBLIC "-//W3C//DTD SVG 20010904//EN"
 "http://www.w3.org/TR/2001/REC-SVG-20010904/DTD/svg10.dtd">
<svg version="1.0" xmlns="http://www.w3.org/2000/svg"
 width="386.000000pt" height="386.000000pt" viewBox="0 0 386.000000 386.000000"
 preserveAspectRatio="xMidYMid meet">
<metadata>
Created by potrace 1.14, written by Peter Selinger 2001-2017
</metadata>
<g transform="translate(0.000000,386.000000) scale(0.100000,-0.100000)"
fill="#000000" stroke="none">
<path d="M1730 3543 c-386 -50 -757 -245 -1018 -537 -191 -212 -333 -501 -389
-789 -28 -145 -25 -475 6 -621 146 -690 690 -1197 1391 -1296 110 -16 396 -8
515 14 245 46 510 168 716 332 529 420 743 1144 529 1785 -139 416 -433 756
-815 944 -263 129 -418 167 -705 170 -107 2 -211 1 -230 -2z m343 -68 c348
-26 692 -186 953 -443 74 -73 97 -109 49 -78 -32 21 -62 20 -70 -3 -11 -36
-222 -80 -240 -50 -5 7 -25 8 -55 4 -35 -5 -56 -2 -80 10 -29 15 -36 15 -98 0
-88 -22 -101 -30 -117 -70 -9 -20 -24 -35 -39 -39 -29 -7 -50 -40 -42 -63 6
-16 46 -15 89 2 14 6 17 2 17 -23 0 -45 15 -47 56 -7 34 34 35 37 17 50 -14
11 -16 18 -7 32 6 10 20 19 30 21 25 4 52 -61 35 -82 -7 -8 -17 -33 -24 -57
-10 -34 -18 -45 -37 -47 -34 -5 -100 16 -100 32 0 8 -6 19 -14 25 -11 9 -15 5
-19 -19 -5 -21 -12 -30 -27 -30 -11 0 -20 -6 -20 -13 0 -21 -44 -57 -84 -68
-31 -9 -35 -13 -26 -29 5 -10 10 -28 10 -40 0 -16 -5 -21 -22 -19 -37 4 -68
-11 -72 -34 -16 -79 -15 -95 9 -111 14 -9 36 -16 49 -16 26 0 73 39 91 75 6
11 21 21 33 23 12 2 30 14 38 28 21 31 35 30 66 -3 14 -16 33 -32 42 -38 27
-16 25 -48 -4 -55 -21 -5 -22 -7 -7 -13 20 -7 57 24 57 48 0 27 37 16 50 -15
15 -37 53 -43 48 -8 -2 15 3 24 15 26 10 2 17 -3 17 -12 0 -10 18 -18 58 -26
108 -21 106 -19 66 -87 l-26 -45 -66 6 c-37 4 -89 8 -117 9 -65 3 -111 26
-135 65 -22 36 -44 40 -80 15 -16 -11 -47 -18 -90 -20 -36 -1 -78 -7 -93 -14
-31 -14 -67 -66 -67 -97 0 -13 -12 -28 -30 -38 -34 -21 -52 -59 -55 -117 -1
-23 -9 -59 -18 -79 l-16 -38 39 -48 c55 -70 89 -95 120 -87 14 3 67 7 117 7
85 2 95 0 118 -22 24 -22 25 -29 19 -77 -6 -47 -3 -57 20 -88 14 -19 35 -55
46 -81 20 -45 20 -48 3 -68 -18 -21 -21 -38 -10 -66 7 -20 16 -73 23 -135 2
-27 9 -59 14 -70 5 -11 15 -38 22 -60 10 -31 18 -40 37 -41 36 -2 81 17 137
57 41 30 53 46 64 83 7 27 22 52 36 61 18 12 24 24 24 54 0 33 5 42 40 66 22
15 42 37 45 49 2 12 3 66 2 120 l-2 99 42 40 c23 22 51 46 61 53 17 12 42 81
42 115 0 8 -14 10 -47 6 -43 -6 -51 -4 -80 23 -18 16 -33 37 -33 46 0 8 -20
36 -44 60 -48 50 -89 145 -69 165 17 17 52 1 68 -32 9 -16 20 -29 25 -29 5 0
14 -19 20 -42 21 -80 30 -105 50 -126 24 -26 60 -18 122 27 24 17 55 39 71 48
70 45 28 100 -115 147 -31 10 -20 26 15 20 47 -8 110 -26 125 -37 6 -5 37 -11
68 -12 53 -3 58 -5 99 -51 47 -52 51 -61 84 -167 25 -81 42 -101 76 -93 32 8
32 -3 5 -150 -25 -141 -23 -134 -58 -239 -97 -291 -277 -544 -529 -744 -163
-130 -464 -267 -653 -296 -14 -3 -56 -9 -95 -15 -92 -14 -336 -14 -415 0 -34
6 -73 13 -88 15 -15 3 -54 12 -87 20 -33 9 -67 17 -75 19 -43 11 -195 74 -270
114 -225 118 -437 310 -576 523 -48 74 -112 192 -132 244 -45 119 -55 146 -67
190 -15 55 -44 207 -51 264 -5 39 -4 276 0 326 13 138 74 363 133 491 20 44
29 54 49 54 26 0 30 -11 15 -39 -6 -9 -12 -40 -14 -67 -6 -56 -17 -84 -52
-133 -31 -42 -32 -95 -5 -136 14 -21 20 -47 20 -86 0 -42 5 -63 21 -83 31 -40
49 -34 38 12 -11 47 -11 62 -1 62 12 0 74 -106 71 -122 -9 -43 59 -98 124
-100 35 -1 143 -56 172 -88 18 -20 55 -28 55 -12 0 5 -9 17 -20 27 -11 10 -20
26 -19 34 3 34 -2 42 -31 52 -33 12 -35 16 -20 54 15 39 4 47 -38 25 -47 -26
-67 -25 -86 2 -20 28 -20 61 -1 102 21 43 46 57 124 63 36 3 68 7 70 9 11 10
41 -20 41 -40 0 -13 6 -29 14 -36 12 -9 16 -5 21 27 9 58 39 105 81 129 23 13
40 31 42 43 2 12 7 21 12 21 4 0 10 9 13 19 3 11 26 30 51 42 25 11 46 27 46
34 0 13 33 29 83 41 30 7 33 15 15 43 -9 15 -9 23 1 35 20 24 38 20 63 -14 26
-36 65 -39 60 -5 -1 11 -5 60 -7 110 -3 49 -8 98 -11 107 -5 17 -7 17 -35 1
-16 -10 -29 -21 -29 -25 0 -21 -21 -4 -34 27 -8 19 -22 35 -31 35 -21 0 -64
-44 -76 -78 -5 -15 -23 -35 -40 -45 -40 -22 -93 -10 -134 33 -24 26 -27 33
-17 54 13 29 153 89 160 68 2 -6 17 -12 33 -12 18 0 28 4 24 10 -10 16 56 90
81 90 20 0 34 -17 34 -41 0 -6 -19 -18 -41 -28 -39 -18 -40 -19 -18 -26 13 -3
38 -14 56 -23 31 -15 32 -15 52 9 11 13 20 30 21 37 0 7 13 12 30 12 37 0 38
9 5 40 -14 13 -25 29 -25 36 0 7 -8 15 -19 19 -10 3 -25 13 -34 23 -13 15 -13
19 -1 30 8 7 14 10 14 6 0 -3 20 6 44 20 51 30 68 33 60 11 -5 -12 10 -22 55
-42 60 -26 71 -39 51 -59 -5 -5 -18 -34 -28 -65 -18 -55 -18 -56 2 -87 29 -44
66 -43 117 3 22 19 45 35 52 35 6 0 54 21 106 47 75 38 97 54 107 78 14 35
106 135 123 135 5 0 8 6 6 13 -7 17 -300 14 -321 -4 -11 -9 -23 -9 -52 -1 -21
7 -48 10 -60 7 -12 -2 -24 1 -28 7 -4 5 -20 7 -39 4 -18 -4 -60 -7 -94 -7 -34
-1 -64 -5 -67 -11 -3 -5 -20 -9 -38 -8 -40 3 -96 -10 -96 -21 0 -5 5 -9 10 -9
6 0 10 -4 10 -8 0 -5 -7 -9 -15 -9 -8 0 -15 4 -15 9 0 4 -7 8 -16 8 -10 0 -13
-6 -10 -17 10 -33 -6 -43 -42 -26 -34 16 -67 11 -59 -10 2 -6 17 -11 33 -10
27 2 28 1 11 -12 -11 -7 -25 -11 -33 -8 -20 7 -64 -5 -64 -18 0 -7 12 -9 30
-7 17 3 30 1 30 -4 0 -4 -4 -8 -10 -8 -5 0 -10 -9 -10 -20 0 -25 -42 -43 -82
-35 -30 7 -37 20 -14 28 7 3 16 17 18 32 5 25 4 27 -26 22 -18 -2 -49 4 -76
15 -44 19 -46 19 -80 2 -47 -24 -46 -24 -31 -34 8 -4 24 -4 37 0 30 12 36 3
18 -25 -15 -22 -16 -23 -67 -9 -35 9 -74 12 -119 8 -40 -4 -68 -3 -68 3 0 15
90 107 184 187 96 82 245 179 347 225 68 30 225 88 262 95 231 47 344 56 540
41z m-633 -431 c0 -2 -7 -4 -15 -4 -8 0 -15 4 -15 10 0 5 7 7 15 4 8 -4 15 -8
15 -10z m-126 -110 c4 -9 -1 -28 -9 -41 -9 -13 -13 -28 -10 -33 11 -17 -17
-22 -29 -4 -12 15 -11 24 6 56 22 41 32 47 42 22z m1176 -481 c40 -38 49 -53
29 -53 -19 0 -79 55 -79 73 0 24 5 22 50 -20z"/>
<path d="M1285 3061 c-3 -5 2 -11 10 -15 8 -3 17 -1 20 3 3 5 -2 11 -10 15 -8
3 -17 1 -20 -3z"/>
<path d="M1062 3027 c-22 -13 -22 -13 11 -25 38 -14 118 -4 125 16 2 8 -5 10
-27 6 -20 -4 -31 -2 -31 5 0 15 -49 13 -78 -2z"/>
<path d="M2200 2715 c-14 -8 -19 -14 -12 -15 21 0 13 -18 -18 -37 -19 -11 -30
-25 -30 -40 0 -38 41 -27 54 15 4 12 14 22 23 22 11 0 14 -6 8 -22 -4 -13 -7
-31 -6 -40 0 -10 -5 -18 -11 -18 -6 0 -9 -2 -7 -5 7 -6 78 20 92 34 9 9 7 16
-11 30 -13 9 -27 33 -31 51 -8 40 -17 44 -51 25z"/>
<path d="M1160 1879 c-55 -15 -81 -31 -96 -61 -8 -15 -13 -31 -12 -35 5 -17
-14 -85 -31 -116 -32 -55 -34 -74 -11 -97 16 -16 18 -25 10 -40 -19 -36 -11
-58 33 -88 76 -54 117 -100 117 -135 1 -18 1 -75 1 -127 1 -71 6 -106 20 -139
11 -25 19 -66 19 -98 0 -45 6 -66 34 -112 52 -85 86 -113 130 -109 l37 3 -25
34 c-23 30 -26 45 -26 110 0 69 2 77 27 98 14 13 30 23 36 23 5 0 7 7 3 15 -3
9 8 29 30 50 29 30 82 125 69 125 -2 0 1 13 6 29 7 20 24 37 53 51 41 19 44
24 56 79 7 33 9 64 6 70 -4 6 -1 23 7 38 8 15 20 50 27 76 12 45 11 49 -9 71
-23 25 -76 50 -126 61 -19 4 -51 29 -85 65 -30 32 -71 66 -90 75 -19 10 -39
24 -43 32 -8 14 -108 64 -124 62 -4 0 -24 -5 -43 -10z"/>
</g>
</svg>
